<svg xmlns="http://www.w3.org/2000/svg" viewBox="0 0 512 512" width="512" height="512">
  <defs>
    <linearGradient id="bg" x1="0%" y1="0%" x2="100%" y2="100%">
      <stop offset="0%" stop-color="#064e3b"/>
      <stop offset="100%" stop-color="#022c22"/>
    </linearGradient>
    <radialGradient id="slime" cx="40%" cy="35%" r="65%">
      <stop offset="0%" stop-color="#6ee7b7"/>
      <stop offset="55%" stop-color="#10b981"/>
      <stop offset="100%" stop-color="#047857"/>
    </radialGradient>
    <radialGradient id="shine" cx="30%" cy="25%" r="40%">
      <stop offset="0%" stop-color="#ecfdf5" stop-opacity="0.9"/>
      <stop offset="100%" stop-color="#ecfdf5" stop-opacity="0"/>
    </radialGradient>
    <filter id="glow" x="-20%" y="-20%" width="140%" height="140%">
      <feGaussianBlur stdDeviation="8" result="blur"/>
      <feMerge>
        <feMergeNode in="blur"/>
        <feMergeNode in="SourceGraphic"/>
      </feMerge>
    </filter>
  </defs>
  <rect width="512" height="512" rx="48" fill="url(#bg)"/>
  <circle cx="256" cy="280" r="180" fill="#10b981" opacity="0.15" filter="url(#glow)"/>
  <ellipse cx="256" cy="300" rx="168" ry="148" fill="url(#slime)"/>
  <ellipse cx="256" cy="260" rx="120" ry="90" fill="url(#shine)"/>
  <ellipse cx="190" cy="240" rx="28" ry="36" fill="#ecfdf5" opacity="0.35"/>
  <circle cx="200" cy="268" r="22" fill="#fff"/>
  <circle cx="312" cy="268" r="22" fill="#fff"/>
  <circle cx="206" cy="272" r="12" fill="#064e3b"/>
  <circle cx="318" cy="272" r="12" fill="#064e3b"/>
  <circle cx="210" cy="268" r="5" fill="#fff"/>
  <circle cx="322" cy="268" r="5" fill="#fff"/>
  <path d="M210 330 Q256 360 302 330" stroke="#065f46" stroke-width="8" fill="none" stroke-linecap="round"/>
  <text x="256" y="420" text-anchor="middle" font-size="72" font-weight="bold" fill="#fde68a" font-family="Arial,sans-serif">÷</text>
  <text x="256" y="88" text-anchor="middle" font-size="28" font-weight="bold" fill="#a7f3d0" font-family="Arial,sans-serif">dÕò±Æ</text>
</svg>
