<svg xmlns="http://www.w3.org/2000/svg" viewBox="0 0 512 512" width="512" height="512">
  <defs>
    <linearGradient id="bg" x1="0%" y1="0%" x2="100%" y2="100%">
      <stop offset="0%" stop-color="#44403c"/>
      <stop offset="100%" stop-color="#1c1917"/>
    </linearGradient>
    <linearGradient id="rock" x1="20%" y1="0%" x2="80%" y2="100%">
      <stop offset="0%" stop-color="#a8a29e"/>
      <stop offset="45%" stop-color="#78716c"/>
      <stop offset="100%" stop-color="#44403c"/>
    </linearGradient>
    <linearGradient id="crack" x1="0%" y1="0%" x2="0%" y2="100%">
      <stop offset="0%" stop-color="#fbbf24"/>
      <stop offset="100%" stop-color="#d97706"/>
    </linearGradient>
    <filter id="shadow">
      <feDropShadow dx="0" dy="12" stdDeviation="16" flood-color="#000" flood-opacity="0.45"/>
    </filter>
  </defs>
  <rect width="512" height="512" rx="48" fill="url(#bg)"/>
  <ellipse cx="256" cy="430" rx="200" ry="40" fill="#000" opacity="0.35"/>
  <g filter="url(#shadow)">
    <path d="M140 180 L200 120 L312 120 L372 180 L390 320 L340 400 L172 400 L122 320 Z" fill="url(#rock)"/>
    <path d="M200 200 L256 160 L312 200 L300 280 L256 320 L212 280 Z" fill="url(#crack)" opacity="0.85"/>
    <rect x="228" y="200" width="56" height="56" rx="8" fill="#fcd34d" opacity="0.9"/>
  </g>
  <circle cx="210" cy="220" r="18" fill="#fef3c7"/>
  <circle cx="302" cy="220" r="18" fill="#fef3c7"/>
  <circle cx="214" cy="224" r="9" fill="#292524"/>
  <circle cx="306" cy="224" r="9" fill="#292524"/>
  <rect x="230" y="268" width="52" height="10" rx="5" fill="#292524"/>
  <text x="256" y="155" text-anchor="middle" font-size="64" font-weight="bold" fill="#fde68a" font-family="Arial,sans-serif">æ</text>
  <text x="256" y="88" text-anchor="middle" font-size="28" font-weight="bold" fill="#d6d3d1" font-family="Arial,sans-serif">Xíµ*</text>
</svg>
